<?xml version="1.0" encoding="UTF-8" ?>
<svg version="1.1" width="380" height="380" xmlns="http://www.w3.org/2000/svg" shape-rendering="crispEdges">
<rect x="191" y="13" width="2" height="86" fill="#00AAFF" />
<rect x="171" y="14" width="20" height="85" fill="#00AAFF" />
<rect x="193" y="14" width="20" height="85" fill="#00AAFF" />
<rect x="164" y="15" width="7" height="85" fill="#00AAFF" />
<rect x="213" y="15" width="7" height="85" fill="#00AAFF" />
<rect x="157" y="16" width="7" height="85" fill="#00AAFF" />
<rect x="220" y="16" width="7" height="85" fill="#00AAFF" />
<rect x="152" y="18" width="5" height="84" fill="#00AAFF" />
<rect x="227" y="18" width="6" height="84" fill="#00AAFF" />
<rect x="147" y="19" width="5" height="85" fill="#00AAFF" />
<rect x="233" y="19" width="3" height="85" fill="#00AAFF" />
<rect x="144" y="20" width="3" height="81" fill="#00AAFF" />
<rect x="236" y="20" width="5" height="81" fill="#00AAFF" />
<rect x="139" y="21" width="5" height="78" fill="#00AAFF" />
<rect x="241" y="21" width="3" height="79" fill="#00AAFF" />
<rect x="137" y="22" width="2" height="76" fill="#00AAFF" />
<rect x="244" y="22" width="4" height="76" fill="#00AAFF" />
<rect x="133" y="24" width="4" height="71" fill="#00AAFF" />
<rect x="248" y="24" width="3" height="71" fill="#00AAFF" />
<rect x="130" y="25" width="3" height="69" fill="#00AAFF" />
<rect x="251" y="25" width="4" height="69" fill="#00AAFF" />
<rect x="127" y="26" width="3" height="67" fill="#00AAFF" />
<rect x="255" y="26" width="2" height="67" fill="#00AAFF" />
<rect x="124" y="27" width="3" height="64" fill="#00AAFF" />
<rect x="257" y="27" width="3" height="64" fill="#00AAFF" />
<rect x="122" y="28" width="2" height="63" fill="#00AAFF" />
<rect x="260" y="28" width="3" height="63" fill="#00AAFF" />
<rect x="119" y="29" width="3" height="61" fill="#00AAFF" />
<rect x="263" y="29" width="2" height="61" fill="#00AAFF" />
<rect x="117" y="31" width="2" height="57" fill="#00AAFF" />
<rect x="265" y="31" width="2" height="57" fill="#00AAFF" />
<rect x="115" y="32" width="2" height="56" fill="#00AAFF" />
<rect x="267" y="32" width="3" height="56" fill="#00AAFF" />
<rect x="111" y="33" width="4" height="54" fill="#00AAFF" />
<rect x="270" y="33" width="2" height="54" fill="#00AAFF" />
<rect x="109" y="34" width="2" height="52" fill="#00AAFF" />
<rect x="272" y="34" width="3" height="52" fill="#00AAFF" />
<rect x="108" y="35" width="1" height="51" fill="#00AAFF" />
<rect x="275" y="35" width="2" height="51" fill="#00AAFF" />
<rect x="105" y="37" width="3" height="49" fill="#00AAFF" />
<rect x="277" y="37" width="2" height="49" fill="#00AAFF" />
<rect x="103" y="38" width="2" height="48" fill="#00AAFF" />
<rect x="279" y="38" width="2" height="48" fill="#00AAFF" />
<rect x="102" y="39" width="1" height="47" fill="#00AAFF" />
<rect x="281" y="39" width="1" height="47" fill="#00AAFF" />
<rect x="100" y="40" width="2" height="46" fill="#00AAFF" />
<rect x="282" y="40" width="3" height="46" fill="#00AAFF" />
<rect x="98" y="41" width="2" height="47" fill="#00AAFF" />
<rect x="285" y="41" width="1" height="47" fill="#00AAFF" />
<rect x="96" y="42" width="2" height="49" fill="#00AAFF" />
<rect x="286" y="42" width="2" height="49" fill="#00AAFF" />
<rect x="94" y="44" width="2" height="56" fill="#00AAFF" />
<rect x="288" y="44" width="1" height="56" fill="#00AAFF" />
<rect x="93" y="45" width="1" height="94" fill="#00AAFF" />
<rect x="289" y="45" width="3" height="63" fill="#00AAFF" />
<rect x="91" y="46" width="2" height="95" fill="#00AAFF" />
<rect x="292" y="46" width="1" height="95" fill="#00AAFF" />
<rect x="89" y="47" width="2" height="95" fill="#00AAFF" />
<rect x="293" y="47" width="2" height="95" fill="#00AAFF" />
<rect x="88" y="48" width="1" height="99" fill="#00AAFF" />
<rect x="295" y="48" width="1" height="99" fill="#00AAFF" />
<rect x="87" y="49" width="1" height="99" fill="#00AAFF" />
<rect x="296" y="49" width="1" height="99" fill="#00AAFF" />
<rect x="84" y="51" width="3" height="100" fill="#00AAFF" />
<rect x="297" y="51" width="3" height="100" fill="#00AAFF" />
<rect x="83" y="52" width="1" height="105" fill="#00AAFF" />
<rect x="300" y="52" width="1" height="105" fill="#00AAFF" />
<rect x="82" y="53" width="1" height="107" fill="#00AAFF" />
<rect x="301" y="53" width="1" height="107" fill="#00AAFF" />
<rect x="80" y="54" width="2" height="110" fill="#00AAFF" />
<rect x="302" y="54" width="1" height="111" fill="#00AAFF" />
<rect x="79" y="55" width="1" height="208" fill="#00AAFF" />
<rect x="303" y="55" width="1" height="116" fill="#00AAFF" />
<rect x="78" y="57" width="1" height="206" fill="#00AAFF" />
<rect x="304" y="57" width="3" height="269" fill="#00AAFF" />
<rect x="76" y="58" width="2" height="203" fill="#00AAFF" />
<rect x="307" y="58" width="1" height="267" fill="#00AAFF" />
<rect x="75" y="59" width="1" height="202" fill="#00AAFF" />
<rect x="308" y="59" width="1" height="265" fill="#00AAFF" />
<rect x="74" y="60" width="1" height="201" fill="#00AAFF" />
<rect x="309" y="60" width="1" height="263" fill="#00AAFF" />
<rect x="73" y="61" width="1" height="199" fill="#00AAFF" />
<rect x="310" y="61" width="1" height="262" fill="#00AAFF" />
<rect x="72" y="62" width="1" height="198" fill="#00AAFF" />
<rect x="311" y="62" width="2" height="259" fill="#00AAFF" />
<rect x="71" y="64" width="1" height="196" fill="#00AAFF" />
<rect x="313" y="64" width="1" height="256" fill="#00AAFF" />
<rect x="68" y="65" width="3" height="195" fill="#00AAFF" />
<rect x="314" y="65" width="1" height="254" fill="#00AAFF" />
<rect x="315" y="66" width="1" height="252" fill="#00AAFF" />
<rect x="67" y="67" width="1" height="194" fill="#00AAFF" />
<rect x="316" y="67" width="1" height="250" fill="#00AAFF" />
<rect x="66" y="68" width="1" height="193" fill="#00AAFF" />
<rect x="317" y="68" width="1" height="248" fill="#00AAFF" />
<rect x="65" y="69" width="1" height="192" fill="#00AAFF" />
<rect x="318" y="69" width="1" height="245" fill="#00AAFF" />
<rect x="64" y="71" width="1" height="190" fill="#00AAFF" />
<rect x="319" y="71" width="2" height="242" fill="#00AAFF" />
<rect x="63" y="72" width="1" height="191" fill="#00AAFF" />
<rect x="321" y="72" width="1" height="239" fill="#00AAFF" />
<rect x="61" y="73" width="2" height="238" fill="#00AAFF" />
<rect x="322" y="73" width="1" height="238" fill="#00AAFF" />
<rect x="60" y="74" width="1" height="236" fill="#00AAFF" />
<rect x="323" y="74" width="1" height="235" fill="#00AAFF" />
<rect x="59" y="75" width="1" height="234" fill="#00AAFF" />
<rect x="324" y="75" width="1" height="232" fill="#00AAFF" />
<rect x="58" y="77" width="1" height="229" fill="#00AAFF" />
<rect x="57" y="78" width="1" height="227" fill="#00AAFF" />
<rect x="325" y="78" width="1" height="228" fill="#00AAFF" />
<rect x="326" y="79" width="2" height="226" fill="#00AAFF" />
<rect x="56" y="80" width="1" height="224" fill="#00AAFF" />
<rect x="328" y="80" width="1" height="224" fill="#00AAFF" />
<rect x="54" y="81" width="2" height="222" fill="#00AAFF" />
<rect x="329" y="81" width="1" height="222" fill="#00AAFF" />
<rect x="53" y="82" width="1" height="218" fill="#00AAFF" />
<rect x="52" y="84" width="1" height="215" fill="#00AAFF" />
<rect x="330" y="84" width="1" height="216" fill="#00AAFF" />
<rect x="331" y="85" width="1" height="214" fill="#00AAFF" />
<rect x="51" y="86" width="1" height="212" fill="#00AAFF" />
<rect x="110" y="86" width="1" height="1" fill="#00AAFF" />
<rect x="272" y="86" width="2" height="1" fill="#00AAFF" />
<rect x="332" y="86" width="1" height="212" fill="#00AAFF" />
<rect x="50" y="87" width="1" height="210" fill="#00AAFF" />
<rect x="333" y="87" width="2" height="209" fill="#00AAFF" />
<rect x="49" y="88" width="1" height="206" fill="#00AAFF" />
<rect x="118" y="88" width="1" height="2" fill="#00AAFF" />
<rect x="335" y="90" width="1" height="204" fill="#00AAFF" />
<rect x="47" y="91" width="2" height="202" fill="#00AAFF" />
<rect x="96" y="91" width="1" height="3" fill="#00AAFF" />
<rect x="125" y="91" width="2" height="1" fill="#00AAFF" />
<rect x="257" y="91" width="2" height="1" fill="#00AAFF" />
<rect x="287" y="91" width="1" height="4" fill="#00AAFF" />
<rect x="336" y="91" width="1" height="201" fill="#00AAFF" />
<rect x="46" y="92" width="1" height="199" fill="#00AAFF" />
<rect x="337" y="93" width="1" height="198" fill="#00AAFF" />
<rect x="45" y="94" width="1" height="196" fill="#00AAFF" />
<rect x="132" y="94" width="1" height="1" fill="#00AAFF" />
<rect x="338" y="94" width="1" height="195" fill="#00AAFF" />
<rect x="44" y="95" width="1" height="192" fill="#00AAFF" />
<rect x="134" y="95" width="3" height="2" fill="#00AAFF" />
<rect x="248" y="95" width="2" height="2" fill="#00AAFF" />
<rect x="339" y="97" width="1" height="190" fill="#00AAFF" />
<rect x="43" y="98" width="1" height="188" fill="#00AAFF" />
<rect x="244" y="98" width="1" height="1" fill="#00AAFF" />
<rect x="340" y="98" width="1" height="187" fill="#00AAFF" />
<rect x="42" y="99" width="1" height="185" fill="#00AAFF" />
<rect x="140" y="99" width="4" height="1" fill="#00AAFF" />
<rect x="171" y="99" width="7" height="1" fill="#00AAFF" />
<rect x="206" y="99" width="7" height="1" fill="#00AAFF" />
<rect x="94" y="100" width="1" height="7" fill="#00AAFF" />
<rect x="142" y="100" width="2" height="1" fill="#00AAFF" />
<rect x="164" y="100" width="5" height="1" fill="#00AAFF" />
<rect x="215" y="100" width="5" height="1" fill="#00AAFF" />
<rect x="241" y="100" width="1" height="1" fill="#00AAFF" />
<rect x="341" y="100" width="2" height="184" fill="#00AAFF" />
<rect x="41" y="101" width="1" height="180" fill="#00AAFF" />
<rect x="145" y="101" width="2" height="1" fill="#00AAFF" />
<rect x="157" y="101" width="5" height="1" fill="#00AAFF" />
<rect x="222" y="101" width="5" height="1" fill="#00AAFF" />
<rect x="236" y="101" width="4" height="1" fill="#00AAFF" />
<rect x="146" y="102" width="1" height="2" fill="#00AAFF" />
<rect x="152" y="102" width="4" height="2" fill="#00AAFF" />
<rect x="228" y="102" width="5" height="2" fill="#00AAFF" />
<rect x="236" y="102" width="2" height="2" fill="#00AAFF" />
<rect x="343" y="102" width="1" height="179" fill="#00AAFF" />
<rect x="39" y="104" width="2" height="176" fill="#00AAFF" />
<rect x="147" y="104" width="3" height="1" fill="#00AAFF" />
<rect x="234" y="104" width="3" height="1" fill="#00AAFF" />
<rect x="344" y="104" width="1" height="175" fill="#00AAFF" />
<rect x="38" y="106" width="1" height="172" fill="#00AAFF" />
<rect x="345" y="106" width="1" height="171" fill="#00AAFF" />
<rect x="37" y="107" width="1" height="169" fill="#00AAFF" />
<rect x="291" y="108" width="1" height="31" fill="#00AAFF" />
<rect x="346" y="108" width="1" height="168" fill="#00AAFF" />
<rect x="36" y="111" width="1" height="162" fill="#00AAFF" />
<rect x="347" y="111" width="1" height="162" fill="#00AAFF" />
<rect x="35" y="112" width="1" height="159" fill="#00AAFF" />
<rect x="348" y="113" width="2" height="158" fill="#00AAFF" />
<rect x="34" y="114" width="1" height="155" fill="#00AAFF" />
<rect x="350" y="115" width="1" height="154" fill="#00AAFF" />
<rect x="32" y="118" width="2" height="148" fill="#00AAFF" />
<rect x="351" y="118" width="1" height="148" fill="#00AAFF" />
<rect x="289" y="119" width="2" height="19" fill="#00AAFF" />
<rect x="31" y="120" width="1" height="144" fill="#00AAFF" />
<rect x="94" y="121" width="1" height="17" fill="#00AAFF" />
<rect x="352" y="121" width="1" height="142" fill="#00AAFF" />
<rect x="30" y="122" width="1" height="138" fill="#00AAFF" />
<rect x="353" y="124" width="1" height="136" fill="#00AAFF" />
<rect x="29" y="126" width="1" height="132" fill="#00AAFF" />
<rect x="354" y="126" width="1" height="131" fill="#00AAFF" />
<rect x="288" y="127" width="1" height="10" fill="#00AAFF" />
<rect x="28" y="128" width="1" height="126" fill="#00AAFF" />
<rect x="95" y="128" width="1" height="9" fill="#00AAFF" />
<rect x="355" y="130" width="1" height="124" fill="#00AAFF" />
<rect x="27" y="132" width="1" height="119" fill="#00AAFF" />
<rect x="96" y="132" width="1" height="3" fill="#00AAFF" />
<rect x="287" y="132" width="1" height="3" fill="#00AAFF" />
<rect x="356" y="132" width="2" height="119" fill="#00AAFF" />
<rect x="25" y="135" width="2" height="113" fill="#00AAFF" />
<rect x="358" y="137" width="1" height="110" fill="#00AAFF" />
<rect x="24" y="138" width="1" height="106" fill="#00AAFF" />
<rect x="359" y="140" width="1" height="104" fill="#00AAFF" />
<rect x="23" y="142" width="1" height="98" fill="#00AAFF" />
<rect x="89" y="142" width="1" height="3" fill="#00AAFF" />
<rect x="294" y="142" width="1" height="3" fill="#00AAFF" />
<rect x="360" y="144" width="1" height="96" fill="#00AAFF" />
<rect x="22" y="146" width="1" height="91" fill="#00AAFF" />
<rect x="361" y="148" width="1" height="88" fill="#00AAFF" />
<rect x="84" y="151" width="2" height="2" fill="#00AAFF" />
<rect x="299" y="151" width="1" height="2" fill="#00AAFF" />
<rect x="21" y="152" width="1" height="79" fill="#00AAFF" />
<rect x="362" y="154" width="1" height="77" fill="#00AAFF" />
<rect x="20" y="157" width="1" height="68" fill="#00AAFF" />
<rect x="363" y="160" width="2" height="65" fill="#00AAFF" />
<rect x="19" y="164" width="1" height="55" fill="#00AAFF" />
<rect x="80" y="164" width="1" height="6" fill="#00AAFF" />
<rect x="365" y="167" width="1" height="51" fill="#00AAFF" />
<rect x="17" y="172" width="2" height="36" fill="#00AAFF" />
<rect x="366" y="178" width="1" height="30" fill="#00AAFF" />
<rect x="303" y="199" width="1" height="130" fill="#00AAFF" />
<rect x="80" y="200" width="1" height="63" fill="#00AAFF" />
<rect x="302" y="206" width="1" height="124" fill="#00AAFF" />
<rect x="81" y="207" width="1" height="57" fill="#00AAFF" />
<rect x="82" y="213" width="1" height="51" fill="#00AAFF" />
<rect x="301" y="213" width="1" height="118" fill="#00AAFF" />
<rect x="300" y="217" width="1" height="115" fill="#00AAFF" />
<rect x="83" y="218" width="1" height="47" fill="#00AAFF" />
<rect x="84" y="220" width="2" height="45" fill="#00AAFF" />
<rect x="299" y="220" width="1" height="112" fill="#00AAFF" />
<rect x="86" y="224" width="1" height="42" fill="#00AAFF" />
<rect x="297" y="224" width="2" height="109" fill="#00AAFF" />
<rect x="296" y="226" width="1" height="108" fill="#00AAFF" />
<rect x="87" y="227" width="1" height="40" fill="#00AAFF" />
<rect x="88" y="230" width="1" height="39" fill="#00AAFF" />
<rect x="295" y="230" width="1" height="106" fill="#00AAFF" />
<rect x="89" y="232" width="1" height="37" fill="#00AAFF" />
<rect x="294" y="232" width="1" height="104" fill="#00AAFF" />
<rect x="293" y="233" width="1" height="104" fill="#00AAFF" />
<rect x="90" y="234" width="1" height="36" fill="#00AAFF" />
<rect x="91" y="236" width="2" height="35" fill="#00AAFF" />
<rect x="292" y="236" width="1" height="101" fill="#00AAFF" />
<rect x="93" y="238" width="1" height="34" fill="#00AAFF" />
<rect x="291" y="238" width="1" height="100" fill="#00AAFF" />
<rect x="94" y="239" width="1" height="34" fill="#00AAFF" />
<rect x="289" y="239" width="2" height="100" fill="#00AAFF" />
<rect x="288" y="240" width="1" height="100" fill="#00AAFF" />
<rect x="95" y="241" width="1" height="35" fill="#00AAFF" />
<rect x="287" y="241" width="1" height="99" fill="#00AAFF" />
<rect x="96" y="243" width="1" height="34" fill="#00AAFF" />
<rect x="97" y="244" width="1" height="35" fill="#00AAFF" />
<rect x="286" y="244" width="1" height="98" fill="#00AAFF" />
<rect x="98" y="245" width="2" height="35" fill="#00AAFF" />
<rect x="285" y="245" width="1" height="98" fill="#00AAFF" />
<rect x="100" y="246" width="1" height="35" fill="#00AAFF" />
<rect x="284" y="246" width="1" height="97" fill="#00AAFF" />
<rect x="101" y="247" width="1" height="37" fill="#00AAFF" />
<rect x="282" y="247" width="2" height="97" fill="#00AAFF" />
<rect x="102" y="248" width="1" height="37" fill="#00AAFF" />
<rect x="281" y="248" width="1" height="97" fill="#00AAFF" />
<rect x="103" y="250" width="1" height="37" fill="#00AAFF" />
<rect x="280" y="250" width="1" height="95" fill="#00AAFF" />
<rect x="104" y="251" width="1" height="38" fill="#00AAFF" />
<rect x="279" y="251" width="1" height="95" fill="#00AAFF" />
<rect x="105" y="252" width="3" height="38" fill="#00AAFF" />
<rect x="277" y="252" width="2" height="94" fill="#00AAFF" />
<rect x="108" y="253" width="1" height="38" fill="#00AAFF" />
<rect x="275" y="253" width="2" height="94" fill="#00AAFF" />
<rect x="109" y="254" width="1" height="38" fill="#00AAFF" />
<rect x="273" y="254" width="2" height="95" fill="#00AAFF" />
<rect x="110" y="256" width="2" height="37" fill="#00AAFF" />
<rect x="272" y="256" width="1" height="94" fill="#00AAFF" />
<rect x="112" y="257" width="1" height="37" fill="#00AAFF" />
<rect x="270" y="257" width="2" height="93" fill="#00AAFF" />
<rect x="113" y="258" width="3" height="38" fill="#00AAFF" />
<rect x="267" y="258" width="3" height="93" fill="#00AAFF" />
<rect x="116" y="259" width="2" height="38" fill="#00AAFF" />
<rect x="266" y="259" width="1" height="93" fill="#00AAFF" />
<rect x="118" y="260" width="2" height="37" fill="#00AAFF" />
<rect x="263" y="260" width="3" height="93" fill="#00AAFF" />
<rect x="120" y="261" width="4" height="37" fill="#00AAFF" />
<rect x="260" y="261" width="3" height="93" fill="#00AAFF" />
<rect x="124" y="263" width="2" height="35" fill="#00AAFF" />
<rect x="258" y="263" width="2" height="93" fill="#00AAFF" />
<rect x="126" y="264" width="4" height="35" fill="#00AAFF" />
<rect x="255" y="264" width="3" height="93" fill="#00AAFF" />
<rect x="130" y="265" width="3" height="33" fill="#00AAFF" />
<rect x="251" y="265" width="4" height="93" fill="#00AAFF" />
<rect x="133" y="266" width="4" height="32" fill="#00AAFF" />
<rect x="247" y="266" width="4" height="93" fill="#00AAFF" />
<rect x="63" y="267" width="1" height="45" fill="#00AAFF" />
<rect x="137" y="267" width="3" height="30" fill="#00AAFF" />
<rect x="242" y="267" width="5" height="95" fill="#00AAFF" />
<rect x="64" y="269" width="1" height="44" fill="#00AAFF" />
<rect x="140" y="269" width="7" height="25" fill="#00AAFF" />
<rect x="236" y="269" width="6" height="87" fill="#00AAFF" />
<rect x="65" y="270" width="1" height="44" fill="#00AAFF" />
<rect x="147" y="270" width="6" height="10" fill="#00AAFF" />
<rect x="229" y="270" width="7" height="7" fill="#00AAFF" />
<rect x="66" y="271" width="1" height="45" fill="#00AAFF" />
<rect x="153" y="271" width="6" height="1" fill="#00AAFF" />
<rect x="226" y="271" width="3" height="1" fill="#00AAFF" />
<rect x="67" y="272" width="2" height="45" fill="#00AAFF" />
<rect x="153" y="272" width="4" height="1" fill="#00AAFF" />
<rect x="227" y="272" width="2" height="1" fill="#00AAFF" />
<rect x="69" y="273" width="3" height="46" fill="#00AAFF" />
<rect x="153" y="273" width="3" height="1" fill="#00AAFF" />
<rect x="228" y="273" width="1" height="3" fill="#00AAFF" />
<rect x="72" y="274" width="1" height="47" fill="#00AAFF" />
<rect x="153" y="274" width="2" height="3" fill="#00AAFF" />
<rect x="73" y="276" width="1" height="47" fill="#00AAFF" />
<rect x="74" y="277" width="1" height="47" fill="#00AAFF" />
<rect x="153" y="277" width="1" height="1" fill="#00AAFF" />
<rect x="230" y="277" width="6" height="2" fill="#00AAFF" />
<rect x="75" y="278" width="1" height="47" fill="#00AAFF" />
<rect x="76" y="279" width="2" height="47" fill="#00AAFF" />
<rect x="231" y="279" width="5" height="2" fill="#00AAFF" />
<rect x="78" y="280" width="1" height="47" fill="#00AAFF" />
<rect x="147" y="280" width="5" height="4" fill="#00AAFF" />
<rect x="79" y="281" width="1" height="48" fill="#00AAFF" />
<rect x="233" y="281" width="3" height="3" fill="#00AAFF" />
<rect x="80" y="283" width="1" height="46" fill="#00AAFF" />
<rect x="147" y="284" width="3" height="3" fill="#00AAFF" />
<rect x="234" y="284" width="2" height="3" fill="#00AAFF" />
<rect x="81" y="285" width="1" height="45" fill="#00AAFF" />
<rect x="82" y="286" width="1" height="45" fill="#00AAFF" />
<rect x="147" y="287" width="2" height="5" fill="#00AAFF" />
<rect x="235" y="287" width="1" height="6" fill="#00AAFF" />
<rect x="83" y="289" width="1" height="43" fill="#00AAFF" />
<rect x="106" y="290" width="2" height="1" fill="#00AAFF" />
<rect x="84" y="291" width="2" height="41" fill="#00AAFF" />
<rect x="147" y="292" width="1" height="2" fill="#00AAFF" />
<rect x="86" y="293" width="1" height="40" fill="#00AAFF" />
<rect x="140" y="294" width="6" height="2" fill="#00AAFF" />
<rect x="87" y="296" width="1" height="38" fill="#00AAFF" />
<rect x="140" y="296" width="2" height="1" fill="#00AAFF" />
<rect x="119" y="297" width="1" height="1" fill="#00AAFF" />
<rect x="137" y="297" width="2" height="1" fill="#00AAFF" />
<rect x="88" y="298" width="1" height="38" fill="#00AAFF" />
<rect x="125" y="298" width="1" height="1" fill="#00AAFF" />
<rect x="89" y="301" width="1" height="36" fill="#00AAFF" />
<rect x="90" y="303" width="1" height="34" fill="#00AAFF" />
<rect x="91" y="305" width="2" height="33" fill="#00AAFF" />
<rect x="93" y="306" width="1" height="32" fill="#00AAFF" />
<rect x="94" y="307" width="1" height="32" fill="#00AAFF" />
<rect x="95" y="310" width="1" height="30" fill="#00AAFF" />
<rect x="96" y="311" width="1" height="31" fill="#00AAFF" />
<rect x="97" y="312" width="3" height="30" fill="#00AAFF" />
<rect x="100" y="313" width="1" height="31" fill="#00AAFF" />
<rect x="101" y="314" width="1" height="30" fill="#00AAFF" />
<rect x="102" y="316" width="2" height="29" fill="#00AAFF" />
<rect x="68" y="317" width="1" height="1" fill="#00AAFF" />
<rect x="104" y="317" width="2" height="29" fill="#00AAFF" />
<rect x="106" y="318" width="3" height="29" fill="#00AAFF" />
<rect x="71" y="319" width="1" height="1" fill="#00AAFF" />
<rect x="109" y="319" width="3" height="30" fill="#00AAFF" />
<rect x="112" y="320" width="5" height="31" fill="#00AAFF" />
<rect x="144" y="320" width="4" height="36" fill="#00AAFF" />
<rect x="117" y="321" width="27" height="32" fill="#00AAFF" />
<rect x="304" y="326" width="2" height="1" fill="#00AAFF" />
<rect x="98" y="342" width="2" height="1" fill="#00AAFF" />
<rect x="105" y="346" width="1" height="1" fill="#00AAFF" />
<rect x="277" y="346" width="1" height="1" fill="#00AAFF" />
<rect x="108" y="347" width="1" height="2" fill="#00AAFF" />
<rect x="110" y="349" width="2" height="1" fill="#00AAFF" />
<rect x="270" y="350" width="1" height="1" fill="#00AAFF" />
<rect x="115" y="351" width="2" height="1" fill="#00AAFF" />
<rect x="267" y="351" width="2" height="1" fill="#00AAFF" />
<rect x="119" y="353" width="25" height="1" fill="#00AAFF" />
<rect x="263" y="353" width="1" height="1" fill="#00AAFF" />
<rect x="123" y="354" width="21" height="2" fill="#00AAFF" />
<rect x="260" y="354" width="2" height="2" fill="#00AAFF" />
<rect x="125" y="356" width="22" height="1" fill="#00AAFF" />
<rect x="237" y="356" width="5" height="2" fill="#00AAFF" />
<rect x="258" y="356" width="1" height="1" fill="#00AAFF" />
<rect x="127" y="357" width="20" height="1" fill="#00AAFF" />
<rect x="255" y="357" width="1" height="1" fill="#00AAFF" />
<rect x="131" y="358" width="15" height="1" fill="#00AAFF" />
<rect x="238" y="358" width="4" height="1" fill="#00AAFF" />
<rect x="251" y="358" width="2" height="1" fill="#00AAFF" />
<rect x="134" y="359" width="10" height="1" fill="#00AAFF" />
<rect x="240" y="359" width="2" height="1" fill="#00AAFF" />
<rect x="247" y="359" width="3" height="1" fill="#00AAFF" />
<rect x="138" y="360" width="2" height="2" fill="#00AAFF" />
</svg>