<?xml version="1.0" encoding="UTF-8" ?>
<svg version="1.1" width="320" height="320" xmlns="http://www.w3.org/2000/svg" shape-rendering="crispEdges">
<rect x="130" y="15" width="1" height="101" fill="#00ff9c" />
<rect x="131" y="17" width="1" height="100" fill="#00ff9c" />
<rect x="129" y="18" width="1" height="100" fill="#00ff9c" />
<rect x="132" y="19" width="1" height="100" fill="#00ff9c" />
<rect x="128" y="20" width="1" height="100" fill="#00ff9c" />
<rect x="133" y="21" width="1" height="100" fill="#00ff9c" />
<rect x="127" y="22" width="1" height="100" fill="#00ff9c" />
<rect x="134" y="23" width="1" height="100" fill="#00ff9c" />
<rect x="126" y="24" width="1" height="100" fill="#00ff9c" />
<rect x="135" y="25" width="1" height="100" fill="#00ff9c" />
<rect x="125" y="26" width="1" height="100" fill="#00ff9c" />
<rect x="136" y="27" width="1" height="100" fill="#00ff9c" />
<rect x="124" y="28" width="1" height="100" fill="#00ff9c" />
<rect x="137" y="29" width="1" height="100" fill="#00ff9c" />
<rect x="123" y="30" width="1" height="100" fill="#00ff9c" />
<rect x="138" y="31" width="1" height="100" fill="#00ff9c" />
<rect x="122" y="32" width="1" height="100" fill="#00ff9c" />
<rect x="139" y="33" width="1" height="100" fill="#00ff9c" />
<rect x="121" y="34" width="1" height="100" fill="#00ff9c" />
<rect x="140" y="35" width="1" height="100" fill="#00ff9c" />
<rect x="120" y="36" width="1" height="100" fill="#00ff9c" />
<rect x="141" y="37" width="1" height="100" fill="#00ff9c" />
<rect x="119" y="38" width="1" height="100" fill="#00ff9c" />
<rect x="142" y="39" width="1" height="100" fill="#00ff9c" />
<rect x="118" y="40" width="1" height="100" fill="#00ff9c" />
<rect x="143" y="41" width="1" height="100" fill="#00ff9c" />
<rect x="117" y="42" width="1" height="100" fill="#00ff9c" />
<rect x="144" y="43" width="1" height="100" fill="#00ff9c" />
<rect x="116" y="44" width="1" height="100" fill="#00ff9c" />
<rect x="145" y="45" width="1" height="100" fill="#00ff9c" />
<rect x="115" y="46" width="1" height="99" fill="#00ff9c" />
<rect x="146" y="47" width="1" height="100" fill="#00ff9c" />
<rect x="114" y="48" width="1" height="99" fill="#00ff9c" />
<rect x="113" y="50" width="1" height="99" fill="#00ff9c" />
<rect x="147" y="50" width="1" height="99" fill="#00ff9c" />
<rect x="112" y="52" width="1" height="99" fill="#00ff9c" />
<rect x="148" y="52" width="1" height="99" fill="#00ff9c" />
<rect x="111" y="54" width="1" height="99" fill="#00ff9c" />
<rect x="149" y="54" width="1" height="99" fill="#00ff9c" />
<rect x="110" y="56" width="1" height="99" fill="#00ff9c" />
<rect x="150" y="56" width="1" height="99" fill="#00ff9c" />
<rect x="109" y="58" width="1" height="99" fill="#00ff9c" />
<rect x="151" y="58" width="1" height="99" fill="#00ff9c" />
<rect x="108" y="60" width="1" height="99" fill="#00ff9c" />
<rect x="152" y="60" width="1" height="99" fill="#00ff9c" />
<rect x="107" y="62" width="1" height="99" fill="#00ff9c" />
<rect x="153" y="62" width="1" height="99" fill="#00ff9c" />
<rect x="106" y="64" width="1" height="99" fill="#00ff9c" />
<rect x="154" y="64" width="1" height="99" fill="#00ff9c" />
<rect x="105" y="66" width="1" height="99" fill="#00ff9c" />
<rect x="155" y="66" width="1" height="99" fill="#00ff9c" />
<rect x="104" y="68" width="1" height="99" fill="#00ff9c" />
<rect x="156" y="68" width="1" height="99" fill="#00ff9c" />
<rect x="103" y="70" width="1" height="99" fill="#00ff9c" />
<rect x="157" y="70" width="1" height="99" fill="#00ff9c" />
<rect x="102" y="72" width="1" height="99" fill="#00ff9c" />
<rect x="158" y="72" width="1" height="99" fill="#00ff9c" />
<rect x="101" y="74" width="1" height="99" fill="#00ff9c" />
<rect x="159" y="74" width="1" height="99" fill="#00ff9c" />
<rect x="100" y="76" width="1" height="99" fill="#00ff9c" />
<rect x="160" y="76" width="1" height="99" fill="#00ff9c" />
<rect x="99" y="78" width="1" height="101" fill="#00ff9c" />
<rect x="161" y="78" width="1" height="99" fill="#00ff9c" />
<rect x="98" y="80" width="1" height="99" fill="#00ff9c" />
<rect x="162" y="80" width="1" height="169" fill="#00ff9c" />
<rect x="97" y="82" width="1" height="97" fill="#00ff9c" />
<rect x="163" y="83" width="1" height="168" fill="#00ff9c" />
<rect x="96" y="84" width="1" height="95" fill="#00ff9c" />
<rect x="164" y="85" width="1" height="94" fill="#00ff9c" />
<rect x="95" y="86" width="1" height="93" fill="#00ff9c" />
<rect x="165" y="87" width="1" height="92" fill="#00ff9c" />
<rect x="94" y="88" width="1" height="91" fill="#00ff9c" />
<rect x="166" y="89" width="1" height="90" fill="#00ff9c" />
<rect x="93" y="90" width="1" height="89" fill="#00ff9c" />
<rect x="167" y="91" width="1" height="88" fill="#00ff9c" />
<rect x="92" y="92" width="1" height="87" fill="#00ff9c" />
<rect x="168" y="93" width="1" height="86" fill="#00ff9c" />
<rect x="91" y="94" width="1" height="85" fill="#00ff9c" />
<rect x="169" y="95" width="1" height="84" fill="#00ff9c" />
<rect x="90" y="96" width="1" height="83" fill="#00ff9c" />
<rect x="170" y="97" width="1" height="82" fill="#00ff9c" />
<rect x="89" y="98" width="1" height="81" fill="#00ff9c" />
<rect x="171" y="99" width="1" height="80" fill="#00ff9c" />
<rect x="88" y="100" width="1" height="79" fill="#00ff9c" />
<rect x="172" y="101" width="1" height="78" fill="#00ff9c" />
<rect x="87" y="102" width="1" height="77" fill="#00ff9c" />
<rect x="173" y="103" width="1" height="76" fill="#00ff9c" />
<rect x="86" y="104" width="1" height="75" fill="#00ff9c" />
<rect x="174" y="105" width="1" height="74" fill="#00ff9c" />
<rect x="85" y="106" width="1" height="73" fill="#00ff9c" />
<rect x="175" y="107" width="1" height="72" fill="#00ff9c" />
<rect x="84" y="108" width="1" height="71" fill="#00ff9c" />
<rect x="176" y="109" width="1" height="70" fill="#00ff9c" />
<rect x="83" y="110" width="1" height="69" fill="#00ff9c" />
<rect x="177" y="111" width="1" height="68" fill="#00ff9c" />
<rect x="82" y="112" width="1" height="67" fill="#00ff9c" />
<rect x="81" y="114" width="1" height="65" fill="#00ff9c" />
<rect x="178" y="114" width="1" height="65" fill="#00ff9c" />
<rect x="80" y="116" width="1" height="63" fill="#00ff9c" />
<rect x="179" y="116" width="1" height="63" fill="#00ff9c" />
<rect x="79" y="118" width="1" height="61" fill="#00ff9c" />
<rect x="180" y="118" width="1" height="61" fill="#00ff9c" />
<rect x="78" y="120" width="1" height="59" fill="#00ff9c" />
<rect x="181" y="120" width="1" height="59" fill="#00ff9c" />
<rect x="77" y="122" width="1" height="57" fill="#00ff9c" />
<rect x="182" y="122" width="1" height="57" fill="#00ff9c" />
<rect x="76" y="124" width="1" height="55" fill="#00ff9c" />
<rect x="183" y="124" width="1" height="55" fill="#00ff9c" />
<rect x="75" y="126" width="1" height="53" fill="#00ff9c" />
<rect x="184" y="126" width="1" height="53" fill="#00ff9c" />
<rect x="74" y="128" width="1" height="51" fill="#00ff9c" />
<rect x="185" y="128" width="1" height="51" fill="#00ff9c" />
<rect x="73" y="130" width="1" height="49" fill="#00ff9c" />
<rect x="186" y="130" width="1" height="49" fill="#00ff9c" />
<rect x="72" y="132" width="1" height="47" fill="#00ff9c" />
<rect x="187" y="132" width="1" height="47" fill="#00ff9c" />
<rect x="71" y="134" width="1" height="45" fill="#00ff9c" />
<rect x="188" y="134" width="1" height="45" fill="#00ff9c" />
<rect x="70" y="136" width="1" height="43" fill="#00ff9c" />
<rect x="189" y="136" width="1" height="43" fill="#00ff9c" />
<rect x="69" y="138" width="1" height="41" fill="#00ff9c" />
<rect x="190" y="138" width="1" height="41" fill="#00ff9c" />
<rect x="68" y="140" width="1" height="39" fill="#00ff9c" />
<rect x="191" y="140" width="1" height="39" fill="#00ff9c" />
<rect x="67" y="142" width="1" height="37" fill="#00ff9c" />
<rect x="192" y="142" width="1" height="37" fill="#00ff9c" />
<rect x="66" y="144" width="1" height="35" fill="#00ff9c" />
<rect x="193" y="144" width="1" height="35" fill="#00ff9c" />
<rect x="65" y="146" width="1" height="33" fill="#00ff9c" />
<rect x="194" y="147" width="1" height="32" fill="#00ff9c" />
<rect x="64" y="148" width="1" height="31" fill="#00ff9c" />
<rect x="195" y="149" width="1" height="30" fill="#00ff9c" />
<rect x="63" y="150" width="1" height="29" fill="#00ff9c" />
<rect x="196" y="151" width="1" height="28" fill="#00ff9c" />
<rect x="62" y="152" width="1" height="27" fill="#00ff9c" />
<rect x="197" y="153" width="1" height="26" fill="#00ff9c" />
<rect x="61" y="154" width="1" height="25" fill="#00ff9c" />
<rect x="198" y="155" width="1" height="24" fill="#00ff9c" />
<rect x="60" y="156" width="1" height="23" fill="#00ff9c" />
<rect x="199" y="157" width="1" height="22" fill="#00ff9c" />
<rect x="59" y="158" width="1" height="21" fill="#00ff9c" />
<rect x="200" y="159" width="1" height="20" fill="#00ff9c" />
<rect x="58" y="160" width="1" height="19" fill="#00ff9c" />
<rect x="201" y="161" width="1" height="18" fill="#00ff9c" />
<rect x="57" y="162" width="1" height="17" fill="#00ff9c" />
<rect x="202" y="163" width="1" height="16" fill="#00ff9c" />
<rect x="56" y="164" width="1" height="15" fill="#00ff9c" />
<rect x="203" y="165" width="1" height="14" fill="#00ff9c" />
<rect x="55" y="166" width="1" height="13" fill="#00ff9c" />
<rect x="204" y="167" width="1" height="12" fill="#00ff9c" />
<rect x="54" y="168" width="1" height="11" fill="#00ff9c" />
<rect x="205" y="169" width="1" height="10" fill="#00ff9c" />
<rect x="53" y="170" width="1" height="9" fill="#00ff9c" />
<rect x="206" y="171" width="1" height="8" fill="#00ff9c" />
<rect x="52" y="172" width="1" height="7" fill="#00ff9c" />
<rect x="207" y="173" width="1" height="6" fill="#00ff9c" />
<rect x="51" y="174" width="1" height="5" fill="#00ff9c" />
<rect x="208" y="175" width="1" height="4" fill="#00ff9c" />
<rect x="50" y="176" width="1" height="3" fill="#00ff9c" />
<rect x="49" y="177" width="1" height="2" fill="#00ff9c" />
<rect x="209" y="177" width="1" height="2" fill="#00ff9c" />
<rect x="48" y="178" width="1" height="1" fill="#00ff9c" />
<rect x="123" y="178" width="39" height="1" fill="#00ff9c" />
<rect x="210" y="178" width="39" height="1" fill="#00ff9c" />
<rect x="124" y="179" width="38" height="1" fill="#00ff9c" />
<rect x="210" y="179" width="38" height="2" fill="#00ff9c" />
<rect x="125" y="180" width="37" height="2" fill="#00ff9c" />
<rect x="164" y="181" width="1" height="72" fill="#00ff9c" />
<rect x="209" y="181" width="38" height="2" fill="#00ff9c" />
<rect x="126" y="182" width="36" height="2" fill="#00ff9c" />
<rect x="165" y="183" width="1" height="72" fill="#00ff9c" />
<rect x="208" y="183" width="38" height="2" fill="#00ff9c" />
<rect x="127" y="184" width="35" height="2" fill="#00ff9c" />
<rect x="166" y="185" width="1" height="71" fill="#00ff9c" />
<rect x="207" y="185" width="38" height="2" fill="#00ff9c" />
<rect x="128" y="186" width="34" height="2" fill="#00ff9c" />
<rect x="167" y="186" width="1" height="72" fill="#00ff9c" />
<rect x="206" y="187" width="38" height="2" fill="#00ff9c" />
<rect x="129" y="188" width="33" height="1" fill="#00ff9c" />
<rect x="168" y="188" width="1" height="72" fill="#00ff9c" />
<rect x="130" y="189" width="32" height="2" fill="#00ff9c" />
<rect x="205" y="189" width="38" height="2" fill="#00ff9c" />
<rect x="169" y="190" width="1" height="72" fill="#00ff9c" />
<rect x="204" y="190" width="1" height="72" fill="#00ff9c" />
<rect x="131" y="191" width="31" height="2" fill="#00ff9c" />
<rect x="170" y="191" width="1" height="73" fill="#00ff9c" />
<rect x="205" y="191" width="37" height="2" fill="#00ff9c" />
<rect x="203" y="192" width="1" height="72" fill="#00ff9c" />
<rect x="132" y="193" width="30" height="2" fill="#00ff9c" />
<rect x="171" y="193" width="1" height="72" fill="#00ff9c" />
<rect x="205" y="193" width="36" height="2" fill="#00ff9c" />
<rect x="202" y="194" width="1" height="72" fill="#00ff9c" />
<rect x="133" y="195" width="29" height="2" fill="#00ff9c" />
<rect x="172" y="195" width="1" height="72" fill="#00ff9c" />
<rect x="205" y="195" width="35" height="1" fill="#00ff9c" />
<rect x="201" y="196" width="1" height="72" fill="#00ff9c" />
<rect x="205" y="196" width="34" height="2" fill="#00ff9c" />
<rect x="134" y="197" width="28" height="1" fill="#00ff9c" />
<rect x="173" y="197" width="1" height="72" fill="#00ff9c" />
<rect x="135" y="198" width="27" height="2" fill="#00ff9c" />
<rect x="174" y="198" width="1" height="73" fill="#00ff9c" />
<rect x="200" y="198" width="1" height="72" fill="#00ff9c" />
<rect x="205" y="198" width="33" height="2" fill="#00ff9c" />
<rect x="136" y="200" width="26" height="2" fill="#00ff9c" />
<rect x="175" y="200" width="1" height="73" fill="#00ff9c" />
<rect x="199" y="200" width="1" height="72" fill="#00ff9c" />
<rect x="205" y="200" width="32" height="2" fill="#00ff9c" />
<rect x="198" y="201" width="1" height="73" fill="#00ff9c" />
<rect x="137" y="202" width="25" height="2" fill="#00ff9c" />
<rect x="176" y="202" width="1" height="72" fill="#00ff9c" />
<rect x="205" y="202" width="31" height="2" fill="#00ff9c" />
<rect x="177" y="203" width="1" height="73" fill="#00ff9c" />
<rect x="197" y="203" width="1" height="73" fill="#00ff9c" />
<rect x="138" y="204" width="24" height="2" fill="#00ff9c" />
<rect x="205" y="204" width="30" height="2" fill="#00ff9c" />
<rect x="178" y="205" width="1" height="73" fill="#00ff9c" />
<rect x="196" y="205" width="1" height="72" fill="#00ff9c" />
<rect x="139" y="206" width="23" height="2" fill="#00ff9c" />
<rect x="205" y="206" width="29" height="2" fill="#00ff9c" />
<rect x="179" y="207" width="1" height="73" fill="#00ff9c" />
<rect x="195" y="207" width="1" height="72" fill="#00ff9c" />
<rect x="140" y="208" width="22" height="1" fill="#00ff9c" />
<rect x="205" y="208" width="28" height="2" fill="#00ff9c" />
<rect x="141" y="209" width="21" height="2" fill="#00ff9c" />
<rect x="180" y="209" width="1" height="73" fill="#00ff9c" />
<rect x="194" y="209" width="1" height="72" fill="#00ff9c" />
<rect x="181" y="210" width="1" height="74" fill="#00ff9c" />
<rect x="205" y="210" width="27" height="1" fill="#00ff9c" />
<rect x="142" y="211" width="20" height="2" fill="#00ff9c" />
<rect x="193" y="211" width="1" height="72" fill="#00ff9c" />
<rect x="205" y="211" width="26" height="2" fill="#00ff9c" />
<rect x="182" y="212" width="1" height="73" fill="#00ff9c" />
<rect x="192" y="212" width="1" height="73" fill="#00ff9c" />
<rect x="143" y="213" width="19" height="2" fill="#00ff9c" />
<rect x="205" y="213" width="25" height="2" fill="#00ff9c" />
<rect x="183" y="214" width="1" height="73" fill="#00ff9c" />
<rect x="191" y="214" width="1" height="73" fill="#00ff9c" />
<rect x="144" y="215" width="18" height="2" fill="#00ff9c" />
<rect x="184" y="215" width="1" height="74" fill="#00ff9c" />
<rect x="205" y="215" width="24" height="2" fill="#00ff9c" />
<rect x="190" y="216" width="1" height="73" fill="#00ff9c" />
<rect x="145" y="217" width="17" height="1" fill="#00ff9c" />
<rect x="185" y="217" width="1" height="74" fill="#00ff9c" />
<rect x="205" y="217" width="23" height="2" fill="#00ff9c" />
<rect x="146" y="218" width="16" height="2" fill="#00ff9c" />
<rect x="189" y="218" width="1" height="73" fill="#00ff9c" />
<rect x="186" y="219" width="1" height="74" fill="#00ff9c" />
<rect x="205" y="219" width="22" height="2" fill="#00ff9c" />
<rect x="147" y="220" width="15" height="2" fill="#00ff9c" />
<rect x="188" y="220" width="1" height="73" fill="#00ff9c" />
<rect x="187" y="221" width="1" height="73" fill="#00ff9c" />
<rect x="205" y="221" width="21" height="2" fill="#00ff9c" />
<rect x="148" y="222" width="14" height="2" fill="#00ff9c" />
<rect x="205" y="223" width="20" height="2" fill="#00ff9c" />
<rect x="149" y="224" width="13" height="2" fill="#00ff9c" />
<rect x="205" y="225" width="19" height="2" fill="#00ff9c" />
<rect x="150" y="226" width="12" height="1" fill="#00ff9c" />
<rect x="151" y="227" width="11" height="2" fill="#00ff9c" />
<rect x="205" y="227" width="18" height="1" fill="#00ff9c" />
<rect x="205" y="228" width="17" height="2" fill="#00ff9c" />
<rect x="152" y="229" width="10" height="2" fill="#00ff9c" />
<rect x="205" y="230" width="16" height="2" fill="#00ff9c" />
<rect x="153" y="231" width="9" height="2" fill="#00ff9c" />
<rect x="205" y="232" width="15" height="2" fill="#00ff9c" />
<rect x="154" y="233" width="8" height="2" fill="#00ff9c" />
<rect x="205" y="234" width="14" height="2" fill="#00ff9c" />
<rect x="155" y="235" width="7" height="1" fill="#00ff9c" />
<rect x="156" y="236" width="6" height="2" fill="#00ff9c" />
<rect x="205" y="236" width="13" height="2" fill="#00ff9c" />
<rect x="157" y="238" width="5" height="2" fill="#00ff9c" />
<rect x="205" y="238" width="12" height="2" fill="#00ff9c" />
<rect x="158" y="240" width="4" height="2" fill="#00ff9c" />
<rect x="205" y="240" width="11" height="2" fill="#00ff9c" />
<rect x="159" y="242" width="3" height="2" fill="#00ff9c" />
<rect x="205" y="242" width="10" height="2" fill="#00ff9c" />
<rect x="160" y="244" width="2" height="2" fill="#00ff9c" />
<rect x="205" y="244" width="9" height="1" fill="#00ff9c" />
<rect x="205" y="245" width="8" height="2" fill="#00ff9c" />
<rect x="161" y="246" width="1" height="1" fill="#00ff9c" />
<rect x="205" y="247" width="7" height="2" fill="#00ff9c" />
<rect x="205" y="249" width="6" height="2" fill="#00ff9c" />
<rect x="205" y="251" width="5" height="2" fill="#00ff9c" />
<rect x="205" y="253" width="4" height="2" fill="#00ff9c" />
<rect x="205" y="255" width="3" height="2" fill="#00ff9c" />
<rect x="205" y="257" width="2" height="2" fill="#00ff9c" />
<rect x="205" y="259" width="1" height="2" fill="#00ff9c" />
</svg>